<svg xmlns="http://www.w3.org/2000/svg" viewBox="0 0 81.47 27.38"><defs><style>.cls-1{fill:#0086b0;}.cls-2{fill:#f5921e;}.cls-3{fill:#00adab;}</style></defs><title>Asset 6</title><g id="Layer_2" data-name="Layer 2"><g id="Layer_1-2" data-name="Layer 1"><path class="cls-1" d="M81.36,1.58,75.47,25.05c-.26,1.07-.85,1.29-1.89,1.29H69.25c-1.07,0-1.7-.26-1.92-1.22l-2-8.63a35.3,35.3,0,0,1-.71-6.66h-.29a37.43,37.43,0,0,1-.82,6.66l-2,8.56c-.3,1.07-.89,1.29-1.93,1.29H55.37c-1.08,0-1.71-.22-1.93-1.22L47.59,1.58c-.26-1-.15-1.52,1-1.52h4.56c1.29,0,1.85.22,2.07,1.37l1.63,9.7a55,55,0,0,1,.52,6.55h.26a40.59,40.59,0,0,1,.7-6.55l2.29-9.7C60.88.24,61.51.06,62.7.06h4c1.14,0,1.81.22,2.07,1.37L71,11.13a49,49,0,0,1,.7,6.55H72c0-1,.26-4.52.55-6.55l1.56-9.7C74.36.28,74.91.06,76.25.06h4.11C81.5.06,81.62.54,81.36,1.58Z"/><rect class="cls-2" x="28.8" y="20.31" width="17.65" height="7.06" rx="1.16"/><path class="cls-2" d="M37.66,0c3.48,0,5.46,1,6.57,3.3.33.68.14,1-.57,1.31l-2.35,1c-.64.28-.9.18-1.27-.5a2.41,2.41,0,0,0-2.38-1.22c-1.6,0-2.24.4-2.24,1.22,0,1,1.39,1.23,3.09,1.44,2.73.37,6.26,1,6.26,5.48,0,3.46-3.13,5.37-7.3,5.37-3.51,0-5.95-1.2-6.85-3.65-.26-.71-.05-1,.64-1.29l2.21-.8c.71-.24,1-.17,1.39.51a2.72,2.72,0,0,0,2.66,1.25c1.58,0,2.52-.33,2.52-1.34s-1.2-1.18-2.76-1.39c-2.75-.38-6.61-.87-6.61-5.44C30.67,2.17,33.16,0,37.66,0Z"/><path class="cls-3" d="M24.23,26.5h-4c-1.92,0-2.48-.41-2.78-1.56l-.85-2.66h-8l-.86,2.66c-.37,1.15-.85,1.56-2.7,1.56H1.16C0,26.5-.21,26,.16,25L8.68,1.51C9.05.43,9.53.21,10.6.21h4.23a1.68,1.68,0,0,1,1.92,1.22L25.3,25C25.67,26,25.34,26.5,24.23,26.5ZM12.75,7h-.37a19.58,19.58,0,0,1-.7,5.15l-1.37,4.37h4.63l-1.37-4.34A23.44,23.44,0,0,1,12.75,7Z"/></g></g></svg>